#tb 0: 1/10
#media_type 0: video
#codec_id 0: rawvideo
#dimensions 0: 85x128
#sar 0: 0/1
0,          0,          0,        1,    43520, 0x55ff781a
0,          1,          1,        1,    43520, 0x04d88192
0,          2,          2,        1,    43520, 0x7e833ec5
0,          3,          3,        1,    43520, 0x91ac00fb
0,          4,          4,        1,    43520, 0x3ff89ba1
0,          5,          5,        1,    43520, 0xb5494211
0,          6,          6,        1,    43520, 0x667da22b
0,          7,          7,        1,    43520, 0x7ed13fc4
0,          8,          8,        1,    43520, 0x698c424e
0,          9,          9,        1,    43520, 0x8307f165
0,         10,         10,        1,    43520, 0x573f2e99
0,         11,         11,        1,    43520, 0x6cc8b17f
0,         12,         12,        1,    43520, 0xdbfa81bc
0,         13,         13,        1,    43520, 0x062f421c
0,         14,         14,        1,    43520, 0xd094ad00
0,         15,         15,        1,    43520, 0x2989fc79
0,         16,         16,        1,    43520, 0x55422963
0,         17,         17,        1,    43520, 0xff392d2e
0,         18,         18,        1,    43520, 0x8aa7988c
0,         19,         19,        1,    43520, 0xcd57102d
0,         20,         20,        1,    43520, 0x4cb18dbf
0,         21,         21,        1,    43520, 0x4641be38
0,         22,         22,        1,    43520, 0xaa972057
0,         23,         23,        1,    43520, 0xa254d673
0,         24,         24,        1,    43520, 0xb73b2368
0,         25,         25,        1,    43520, 0x5cca90e2
0,         26,         26,        1,    43520, 0xaf07bdc6
0,         27,         27,        1,    43520, 0xde218e07
0,         28,         28,        1,    43520, 0x1034aa1a
0,         29,         29,        1,    43520, 0x3e4ff643
0,         30,         30,        1,    43520, 0x664c464d
0,         31,         31,        1,    43520, 0x2f8be8a1
0,         32,         32,        1,    43520, 0x46a224c2
0,         33,         33,        1,    43520, 0xcff4fdb7
0,         34,         34,        1,    43520, 0xf2150524
0,         35,         35,        1,    43520, 0x5bcc9368
0,         36,         36,        1,    43520, 0x563a0b9f
0,         37,         37,        1,    43520, 0x0f4ad4b9
0,         38,         38,        1,    43520, 0xff418da1
0,         39,         39,        1,    43520, 0x0ae74740
0,         40,         40,        1,    43520, 0x938ff6a9
0,         41,         41,        1,    43520, 0xe0dce243
0,         42,         42,        1,    43520, 0x54048ae4
0,         43,         43,        1,    43520, 0xed842f5e
0,         44,         44,        1,    43520, 0xada95e65
0,         45,         45,        1,    43520, 0x9236295f
0,         46,         46,        1,    43520, 0xd934ac16
0,         47,         47,        1,    43520, 0x916a7f76
0,         48,         48,        1,    43520, 0xf8da4297
0,         49,         49,        1,    43520, 0x0af09905
0,         50,         50,        1,    43520, 0x7bdc751d
0,         51,         51,        1,    43520, 0xf8ef1613
0,         52,         52,        1,    43520, 0x9fbb358b
0,         53,         53,        1,    43520, 0x38bc3580
0,         54,         54,        1,    43520, 0xd8d67aa6
0,         55,         55,        1,    43520, 0x7135bc51
0,         56,         56,        1,    43520, 0xbe7dba7f
0,         57,         57,        1,    43520, 0xade97c06
0,         58,         58,        1,    43520, 0x25be4ae1
0,         59,         59,        1,    43520, 0xb0068003
0,         60,         60,        1,    43520, 0xe661e261
0,         61,         61,        1,    43520, 0x8cdb0034
0,         62,         62,        1,    43520, 0x30d0403d
0,         63,         63,        1,    43520, 0xd8f0f1b0
0,         64,         64,        1,    43520, 0xc24e9c96
0,         65,         65,        1,    43520, 0x0890017d
0,         66,         66,        1,    43520, 0xa7cb149a
0,         67,         67,        1,    43520, 0xe91cb1d9
0,         68,         68,        1,    43520, 0xa7cb149a
0,         69,         69,        1,    43520, 0x456ef9c4
0,         70,         70,        1,    43520, 0xa2f97d64
0,         71,         71,        1,    43520, 0xc0d4d7f1
0,         72,         72,        1,    43520, 0xdb9f3228
0,         73,         73,        1,    43520, 0xbb88e776
0,         74,         74,        1,    43520, 0x40c2eadb
0,         75,         75,        1,    43520, 0x9f9a8595
0,         76,         76,        1,    43520, 0x826c589b
0,         77,         77,        1,    43520, 0xe7d867de
0,         78,         78,        1,    43520, 0x1559a00b
0,         79,         79,        1,    43520, 0x06b6c770
0,         80,         80,        1,    43520, 0x2abf6726
0,         81,         81,        1,    43520, 0x97c72c08
0,         82,         82,        1,    43520, 0x538d376b
0,         83,         83,        1,    43520, 0x796e28a3
0,         84,         84,        1,    43520, 0x67fa784b
0,         85,         85,        1,    43520, 0xc79ba35a
0,         86,         86,        1,    43520, 0xa55c4ced
0,         87,         87,        1,    43520, 0x7fa07790
0,         88,         88,        1,    43520, 0x3e1eb6d0
0,         89,         89,        1,    43520, 0x11912685
0,         90,         90,        1,    43520, 0x51ee567d
0,         91,         91,        1,    43520, 0x9d842796
0,         92,         92,        1,    43520, 0x98e29f70
0,         93,         93,        1,    43520, 0xbc38e8e4
0,         94,         94,        1,    43520, 0xeabafe8b
0,         95,         95,        1,    43520, 0xb06531f5
0,         96,         96,        1,    43520, 0x646a9df3
0,         97,         97,        1,    43520, 0x2300df03
0,         98,         98,        1,    43520, 0x4c64fc2c
0,         99,         99,        1,    43520, 0x510fa8d5
0,        100,        100,        1,    43520, 0x0efbf340
0,        101,        101,        1,    43520, 0x78191362
0,        102,        102,        1,    43520, 0xab372ec4
0,        103,        103,        1,    43520, 0x39cae011
0,        104,        104,        1,    43520, 0x5a6e43b5
0,        105,        105,        1,    43520, 0x3ccaeb1e
0,        106,        106,        1,    43520, 0xb4eea2b2
0,        107,        107,        1,    43520, 0xc1018739
0,        108,        108,        1,    43520, 0xe6ffcd0f
0,        109,        109,        1,    43520, 0x2b0f9d0b
0,        110,        110,        1,    43520, 0x7205226d
0,        111,        111,        1,    43520, 0x7707d62e
0,        112,        112,        1,    43520, 0xaace236b
0,        113,        113,        1,    43520, 0xcf45c66a
0,        114,        114,        1,    43520, 0x871b79f2
0,        115,        115,        1,    43520, 0x166802f2
0,        116,        116,        1,    43520, 0x8fd19447
0,        117,        117,        1,    43520, 0x31ee1291
0,        118,        118,        1,    43520, 0xedf8271c
0,        119,        119,        1,    43520, 0x8dc7f936
0,        120,        120,        1,    43520, 0x50c4c093
0,        121,        121,        1,    43520, 0xd2214cda
0,        122,        122,        1,    43520, 0xdf05886c
0,        123,        123,        1,    43520, 0xab6ec4f2
0,        124,        124,        1,    43520, 0xb50d346a
0,        125,        125,        1,    43520, 0x18b01f6e
0,        126,        126,        1,    43520, 0x43845d17
0,        127,        127,        1,    43520, 0x8b2f5b98
0,        128,        128,        1,    43520, 0xfe96c2f4
0,        129,        129,        1,    43520, 0x316d69d6
0,        130,        130,        1,    43520, 0x5a82c7c7
0,        131,        131,        1,    43520, 0x1c684a44
0,        132,        132,        1,    43520, 0xbf64652e
0,        133,        133,        1,    43520, 0x0867be9a
